<svg xmlns="http://www.w3.org/2000/svg" xml:space="preserve" xmlns:xlink="http://www.w3.org/1999/xlink" style="max-width: 100%;height: auto;" width="1063.75" height="1241.0416666667" viewBox="0 0 1063.75 1241.0416666667">
<defs><mask id="qrmask"><g fill="#ffffff"><g transform="translate(0,177.29166666667)">
<g transform="translate(290.375,106.375) scale(3.9483333333333)"><rect width="6" height="6"/></g>
<g transform="translate(336.375,106.375) scale(3.9483333333333)"><rect width="6" height="6"/></g>
<g transform="translate(451.375,106.375) scale(3.9483333333333)"><rect width="6" height="6"/></g>
<g transform="translate(474.375,106.375) scale(3.9483333333333)"><rect width="6" height="6"/></g>
<g transform="translate(497.375,106.375) scale(3.9483333333333)"><rect width="6" height="6"/></g>
<g transform="translate(543.375,106.375) scale(3.9483333333333)"><rect width="6" height="6"/></g>
<g transform="translate(566.375,106.375) scale(3.9483333333333)"><rect width="6" height="6"/></g>
<g transform="translate(727.375,106.375) scale(3.9483333333333)"><rect width="6" height="6"/></g>
<g transform="translate(750.375,106.375) scale(3.9483333333333)"><rect width="6" height="6"/></g>
<g transform="translate(290.375,129.375) scale(3.9483333333333)"><rect width="6" height="6"/></g>
<g transform="translate(405.375,129.375) scale(3.9483333333333)"><rect width="6" height="6"/></g>
<g transform="translate(520.375,129.375) scale(3.9483333333333)"><rect width="6" height="6"/></g>
<g transform="translate(543.375,129.375) scale(3.9483333333333)"><rect width="6" height="6"/></g>
<g transform="translate(612.375,129.375) scale(3.9483333333333)"><rect width="6" height="6"/></g>
<g transform="translate(704.375,129.375) scale(3.9483333333333)"><rect width="6" height="6"/></g>
<g transform="translate(727.375,129.375) scale(3.9483333333333)"><rect width="6" height="6"/></g>
<g transform="translate(290.375,152.375) scale(3.9483333333333)"><rect width="6" height="6"/></g>
<g transform="translate(336.375,152.375) scale(3.9483333333333)"><rect width="6" height="6"/></g>
<g transform="translate(359.375,152.375) scale(3.9483333333333)"><rect width="6" height="6"/></g>
<g transform="translate(451.375,152.375) scale(3.9483333333333)"><rect width="6" height="6"/></g>
<g transform="translate(474.375,152.375) scale(3.9483333333333)"><rect width="6" height="6"/></g>
<g transform="translate(520.375,152.375) scale(3.9483333333333)"><rect width="6" height="6"/></g>
<g transform="translate(566.375,152.375) scale(3.9483333333333)"><rect width="6" height="6"/></g>
<g transform="translate(589.375,152.375) scale(3.9483333333333)"><rect width="6" height="6"/></g>
<g transform="translate(635.375,152.375) scale(3.9483333333333)"><rect width="6" height="6"/></g>
<g transform="translate(681.375,152.375) scale(3.9483333333333)"><rect width="6" height="6"/></g>
<g transform="translate(727.375,152.375) scale(3.9483333333333)"><rect width="6" height="6"/></g>
<g transform="translate(750.375,152.375) scale(3.9483333333333)"><rect width="6" height="6"/></g>
<g transform="translate(313.375,175.375) scale(3.9483333333333)"><rect width="6" height="6"/></g>
<g transform="translate(336.375,175.375) scale(3.9483333333333)"><rect width="6" height="6"/></g>
<g transform="translate(428.375,175.375) scale(3.9483333333333)"><rect width="6" height="6"/></g>
<g transform="translate(612.375,175.375) scale(3.9483333333333)"><rect width="6" height="6"/></g>
<g transform="translate(635.375,175.375) scale(3.9483333333333)"><rect width="6" height="6"/></g>
<g transform="translate(658.375,175.375) scale(3.9483333333333)"><rect width="6" height="6"/></g>
<g transform="translate(727.375,175.375) scale(3.9483333333333)"><rect width="6" height="6"/></g>
<g transform="translate(359.375,198.375) scale(3.9483333333333)"><rect width="6" height="6"/></g>
<g transform="translate(382.375,198.375) scale(3.9483333333333)"><rect width="6" height="6"/></g>
<g transform="translate(405.375,198.375) scale(3.9483333333333)"><rect width="6" height="6"/></g>
<g transform="translate(428.375,198.375) scale(3.9483333333333)"><rect width="6" height="6"/></g>
<g transform="translate(497.375,198.375) scale(3.9483333333333)"><rect width="6" height="6"/></g>
<g transform="translate(520.375,198.375) scale(3.9483333333333)"><rect width="6" height="6"/></g>
<g transform="translate(566.375,198.375) scale(3.9483333333333)"><rect width="6" height="6"/></g>
<g transform="translate(589.375,198.375) scale(3.9483333333333)"><rect width="6" height="6"/></g>
<g transform="translate(612.375,198.375) scale(3.9483333333333)"><rect width="6" height="6"/></g>
<g transform="translate(681.375,198.375) scale(3.9483333333333)"><rect width="6" height="6"/></g>
<g transform="translate(750.375,198.375) scale(3.9483333333333)"><rect width="6" height="6"/></g>
<g transform="translate(290.375,221.375) scale(3.9483333333333)"><rect width="6" height="6"/></g>
<g transform="translate(313.375,221.375) scale(3.9483333333333)"><rect width="6" height="6"/></g>
<g transform="translate(336.375,221.375) scale(3.9483333333333)"><rect width="6" height="6"/></g>
<g transform="translate(359.375,221.375) scale(3.9483333333333)"><rect width="6" height="6"/></g>
<g transform="translate(405.375,221.375) scale(3.9483333333333)"><rect width="6" height="6"/></g>
<g transform="translate(428.375,221.375) scale(3.9483333333333)"><rect width="6" height="6"/></g>
<g transform="translate(474.375,221.375) scale(3.9483333333333)"><rect width="6" height="6"/></g>
<g transform="translate(497.375,221.375) scale(3.9483333333333)"><rect width="6" height="6"/></g>
<g transform="translate(589.375,221.375) scale(3.9483333333333)"><rect width="6" height="6"/></g>
<g transform="translate(612.375,221.375) scale(3.9483333333333)"><rect width="6" height="6"/></g>
<g transform="translate(635.375,221.375) scale(3.9483333333333)"><rect width="6" height="6"/></g>
<g transform="translate(658.375,221.375) scale(3.9483333333333)"><rect width="6" height="6"/></g>
<g transform="translate(704.375,221.375) scale(3.9483333333333)"><rect width="6" height="6"/></g>
<g transform="translate(727.375,221.375) scale(3.9483333333333)"><rect width="6" height="6"/></g>
<g transform="translate(750.375,221.375) scale(3.9483333333333)"><rect width="6" height="6"/></g>
<g transform="translate(290.375,244.375) scale(3.9483333333333)"><rect width="6" height="6"/></g>
<g transform="translate(336.375,244.375) scale(3.9483333333333)"><rect width="6" height="6"/></g>
<g transform="translate(382.375,244.375) scale(3.9483333333333)"><rect width="6" height="6"/></g>
<g transform="translate(428.375,244.375) scale(3.9483333333333)"><rect width="6" height="6"/></g>
<g transform="translate(474.375,244.375) scale(3.9483333333333)"><rect width="6" height="6"/></g>
<g transform="translate(520.375,244.375) scale(3.9483333333333)"><rect width="6" height="6"/></g>
<g transform="translate(566.375,244.375) scale(3.9483333333333)"><rect width="6" height="6"/></g>
<g transform="translate(612.375,244.375) scale(3.9483333333333)"><rect width="6" height="6"/></g>
<g transform="translate(658.375,244.375) scale(3.9483333333333)"><rect width="6" height="6"/></g>
<g transform="translate(704.375,244.375) scale(3.9483333333333)"><rect width="6" height="6"/></g>
<g transform="translate(750.375,244.375) scale(3.9483333333333)"><rect width="6" height="6"/></g>
<g transform="translate(290.375,267.375) scale(3.9483333333333)"><rect width="6" height="6"/></g>
<g transform="translate(313.375,267.375) scale(3.9483333333333)"><rect width="6" height="6"/></g>
<g transform="translate(336.375,267.375) scale(3.9483333333333)"><rect width="6" height="6"/></g>
<g transform="translate(428.375,267.375) scale(3.9483333333333)"><rect width="6" height="6"/></g>
<g transform="translate(497.375,267.375) scale(3.9483333333333)"><rect width="6" height="6"/></g>
<g transform="translate(566.375,267.375) scale(3.9483333333333)"><rect width="6" height="6"/></g>
<g transform="translate(635.375,267.375) scale(3.9483333333333)"><rect width="6" height="6"/></g>
<g transform="translate(658.375,267.375) scale(3.9483333333333)"><rect width="6" height="6"/></g>
<g transform="translate(681.375,267.375) scale(3.9483333333333)"><rect width="6" height="6"/></g>
<g transform="translate(727.375,267.375) scale(3.9483333333333)"><rect width="6" height="6"/></g>
<g transform="translate(152.375,290.375) scale(3.9483333333333)"><rect width="6" height="6"/></g>
<g transform="translate(175.375,290.375) scale(3.9483333333333)"><rect width="6" height="6"/></g>
<g transform="translate(198.375,290.375) scale(3.9483333333333)"><rect width="6" height="6"/></g>
<g transform="translate(244.375,290.375) scale(3.9483333333333)"><rect width="6" height="6"/></g>
<g transform="translate(290.375,290.375) scale(3.9483333333333)"><rect width="6" height="6"/></g>
<g transform="translate(313.375,290.375) scale(3.9483333333333)"><rect width="6" height="6"/></g>
<g transform="translate(336.375,290.375) scale(3.9483333333333)"><rect width="6" height="6"/></g>
<g transform="translate(428.375,290.375) scale(3.9483333333333)"><rect width="6" height="6"/></g>
<g transform="translate(474.375,290.375) scale(3.9483333333333)"><rect width="6" height="6"/></g>
<g transform="translate(497.375,290.375) scale(3.9483333333333)"><rect width="6" height="6"/></g>
<g transform="translate(543.375,290.375) scale(3.9483333333333)"><rect width="6" height="6"/></g>
<g transform="translate(566.375,290.375) scale(3.9483333333333)"><rect width="6" height="6"/></g>
<g transform="translate(612.375,290.375) scale(3.9483333333333)"><rect width="6" height="6"/></g>
<g transform="translate(704.375,290.375) scale(3.9483333333333)"><rect width="6" height="6"/></g>
<g transform="translate(727.375,290.375) scale(3.9483333333333)"><rect width="6" height="6"/></g>
<g transform="translate(773.375,290.375) scale(3.9483333333333)"><rect width="6" height="6"/></g>
<g transform="translate(796.375,290.375) scale(3.9483333333333)"><rect width="6" height="6"/></g>
<g transform="translate(819.375,290.375) scale(3.9483333333333)"><rect width="6" height="6"/></g>
<g transform="translate(888.375,290.375) scale(3.9483333333333)"><rect width="6" height="6"/></g>
<g transform="translate(911.375,290.375) scale(3.9483333333333)"><rect width="6" height="6"/></g>
<g transform="translate(934.375,290.375) scale(3.9483333333333)"><rect width="6" height="6"/></g>
<g transform="translate(106.375,313.375) scale(3.9483333333333)"><rect width="6" height="6"/></g>
<g transform="translate(221.375,313.375) scale(3.9483333333333)"><rect width="6" height="6"/></g>
<g transform="translate(267.375,313.375) scale(3.9483333333333)"><rect width="6" height="6"/></g>
<g transform="translate(290.375,313.375) scale(3.9483333333333)"><rect width="6" height="6"/></g>
<g transform="translate(313.375,313.375) scale(3.9483333333333)"><rect width="6" height="6"/></g>
<g transform="translate(336.375,313.375) scale(3.9483333333333)"><rect width="6" height="6"/></g>
<g transform="translate(405.375,313.375) scale(3.9483333333333)"><rect width="6" height="6"/></g>
<g transform="translate(428.375,313.375) scale(3.9483333333333)"><rect width="6" height="6"/></g>
<g transform="translate(451.375,313.375) scale(3.9483333333333)"><rect width="6" height="6"/></g>
<g transform="translate(520.375,313.375) scale(3.9483333333333)"><rect width="6" height="6"/></g>
<g transform="translate(566.375,313.375) scale(3.9483333333333)"><rect width="6" height="6"/></g>
<g transform="translate(589.375,313.375) scale(3.9483333333333)"><rect width="6" height="6"/></g>
<g transform="translate(658.375,313.375) scale(3.9483333333333)"><rect width="6" height="6"/></g>
<g transform="translate(750.375,313.375) scale(3.9483333333333)"><rect width="6" height="6"/></g>
<g transform="translate(796.375,313.375) scale(3.9483333333333)"><rect width="6" height="6"/></g>
<g transform="translate(819.375,313.375) scale(3.9483333333333)"><rect width="6" height="6"/></g>
<g transform="translate(842.375,313.375) scale(3.9483333333333)"><rect width="6" height="6"/></g>
<g transform="translate(888.375,313.375) scale(3.9483333333333)"><rect width="6" height="6"/></g>
<g transform="translate(129.375,336.375) scale(3.9483333333333)"><rect width="6" height="6"/></g>
<g transform="translate(152.375,336.375) scale(3.9483333333333)"><rect width="6" height="6"/></g>
<g transform="translate(198.375,336.375) scale(3.9483333333333)"><rect width="6" height="6"/></g>
<g transform="translate(244.375,336.375) scale(3.9483333333333)"><rect width="6" height="6"/></g>
<g transform="translate(267.375,336.375) scale(3.9483333333333)"><rect width="6" height="6"/></g>
<g transform="translate(336.375,336.375) scale(3.9483333333333)"><rect width="6" height="6"/></g>
<g transform="translate(359.375,336.375) scale(3.9483333333333)"><rect width="6" height="6"/></g>
<g transform="translate(382.375,336.375) scale(3.9483333333333)"><rect width="6" height="6"/></g>
<g transform="translate(451.375,336.375) scale(3.9483333333333)"><rect width="6" height="6"/></g>
<g transform="translate(497.375,336.375) scale(3.9483333333333)"><rect width="6" height="6"/></g>
<g transform="translate(543.375,336.375) scale(3.9483333333333)"><rect width="6" height="6"/></g>
<g transform="translate(566.375,336.375) scale(3.9483333333333)"><rect width="6" height="6"/></g>
<g transform="translate(589.375,336.375) scale(3.9483333333333)"><rect width="6" height="6"/></g>
<g transform="translate(681.375,336.375) scale(3.9483333333333)"><rect width="6" height="6"/></g>
<g transform="translate(865.375,336.375) scale(3.9483333333333)"><rect width="6" height="6"/></g>
<g transform="translate(911.375,336.375) scale(3.9483333333333)"><rect width="6" height="6"/></g>
<g transform="translate(934.375,336.375) scale(3.9483333333333)"><rect width="6" height="6"/></g>
<g transform="translate(129.375,359.375) scale(3.9483333333333)"><rect width="6" height="6"/></g>
<g transform="translate(152.375,359.375) scale(3.9483333333333)"><rect width="6" height="6"/></g>
<g transform="translate(175.375,359.375) scale(3.9483333333333)"><rect width="6" height="6"/></g>
<g transform="translate(198.375,359.375) scale(3.9483333333333)"><rect width="6" height="6"/></g>
<g transform="translate(290.375,359.375) scale(3.9483333333333)"><rect width="6" height="6"/></g>
<g transform="translate(313.375,359.375) scale(3.9483333333333)"><rect width="6" height="6"/></g>
<g transform="translate(359.375,359.375) scale(3.9483333333333)"><rect width="6" height="6"/></g>
<g transform="translate(428.375,359.375) scale(3.9483333333333)"><rect width="6" height="6"/></g>
<g transform="translate(451.375,359.375) scale(3.9483333333333)"><rect width="6" height="6"/></g>
<g transform="translate(497.375,359.375) scale(3.9483333333333)"><rect width="6" height="6"/></g>
<g transform="translate(520.375,359.375) scale(3.9483333333333)"><rect width="6" height="6"/></g>
<g transform="translate(612.375,359.375) scale(3.9483333333333)"><rect width="6" height="6"/></g>
<g transform="translate(658.375,359.375) scale(3.9483333333333)"><rect width="6" height="6"/></g>
<g transform="translate(750.375,359.375) scale(3.9483333333333)"><rect width="6" height="6"/></g>
<g transform="translate(773.375,359.375) scale(3.9483333333333)"><rect width="6" height="6"/></g>
<g transform="translate(796.375,359.375) scale(3.9483333333333)"><rect width="6" height="6"/></g>
<g transform="translate(819.375,359.375) scale(3.9483333333333)"><rect width="6" height="6"/></g>
<g transform="translate(842.375,359.375) scale(3.9483333333333)"><rect width="6" height="6"/></g>
<g transform="translate(911.375,359.375) scale(3.9483333333333)"><rect width="6" height="6"/></g>
<g transform="translate(106.375,382.375) scale(3.9483333333333)"><rect width="6" height="6"/></g>
<g transform="translate(175.375,382.375) scale(3.9483333333333)"><rect width="6" height="6"/></g>
<g transform="translate(221.375,382.375) scale(3.9483333333333)"><rect width="6" height="6"/></g>
<g transform="translate(244.375,382.375) scale(3.9483333333333)"><rect width="6" height="6"/></g>
<g transform="translate(290.375,382.375) scale(3.9483333333333)"><rect width="6" height="6"/></g>
<g transform="translate(313.375,382.375) scale(3.9483333333333)"><rect width="6" height="6"/></g>
<g transform="translate(382.375,382.375) scale(3.9483333333333)"><rect width="6" height="6"/></g>
<g transform="translate(451.375,382.375) scale(3.9483333333333)"><rect width="6" height="6"/></g>
<g transform="translate(520.375,382.375) scale(3.9483333333333)"><rect width="6" height="6"/></g>
<g transform="translate(589.375,382.375) scale(3.9483333333333)"><rect width="6" height="6"/></g>
<g transform="translate(612.375,382.375) scale(3.9483333333333)"><rect width="6" height="6"/></g>
<g transform="translate(635.375,382.375) scale(3.9483333333333)"><rect width="6" height="6"/></g>
<g transform="translate(704.375,382.375) scale(3.9483333333333)"><rect width="6" height="6"/></g>
<g transform="translate(727.375,382.375) scale(3.9483333333333)"><rect width="6" height="6"/></g>
<g transform="translate(773.375,382.375) scale(3.9483333333333)"><rect width="6" height="6"/></g>
<g transform="translate(796.375,382.375) scale(3.9483333333333)"><rect width="6" height="6"/></g>
<g transform="translate(842.375,382.375) scale(3.9483333333333)"><rect width="6" height="6"/></g>
<g transform="translate(865.375,382.375) scale(3.9483333333333)"><rect width="6" height="6"/></g>
<g transform="translate(934.375,382.375) scale(3.9483333333333)"><rect width="6" height="6"/></g>
<g transform="translate(106.375,405.375) scale(3.9483333333333)"><rect width="6" height="6"/></g>
<g transform="translate(129.375,405.375) scale(3.9483333333333)"><rect width="6" height="6"/></g>
<g transform="translate(175.375,405.375) scale(3.9483333333333)"><rect width="6" height="6"/></g>
<g transform="translate(221.375,405.375) scale(3.9483333333333)"><rect width="6" height="6"/></g>
<g transform="translate(267.375,405.375) scale(3.9483333333333)"><rect width="6" height="6"/></g>
<g transform="translate(290.375,405.375) scale(3.9483333333333)"><rect width="6" height="6"/></g>
<g transform="translate(336.375,405.375) scale(3.9483333333333)"><rect width="6" height="6"/></g>
<g transform="translate(382.375,405.375) scale(3.9483333333333)"><rect width="6" height="6"/></g>
<g transform="translate(405.375,405.375) scale(3.9483333333333)"><rect width="6" height="6"/></g>
<g transform="translate(497.375,405.375) scale(3.9483333333333)"><rect width="6" height="6"/></g>
<g transform="translate(635.375,405.375) scale(3.9483333333333)"><rect width="6" height="6"/></g>
<g transform="translate(658.375,405.375) scale(3.9483333333333)"><rect width="6" height="6"/></g>
<g transform="translate(727.375,405.375) scale(3.9483333333333)"><rect width="6" height="6"/></g>
<g transform="translate(750.375,405.375) scale(3.9483333333333)"><rect width="6" height="6"/></g>
<g transform="translate(796.375,405.375) scale(3.9483333333333)"><rect width="6" height="6"/></g>
<g transform="translate(819.375,405.375) scale(3.9483333333333)"><rect width="6" height="6"/></g>
<g transform="translate(842.375,405.375) scale(3.9483333333333)"><rect width="6" height="6"/></g>
<g transform="translate(865.375,405.375) scale(3.9483333333333)"><rect width="6" height="6"/></g>
<g transform="translate(106.375,428.375) scale(3.9483333333333)"><rect width="6" height="6"/></g>
<g transform="translate(129.375,428.375) scale(3.9483333333333)"><rect width="6" height="6"/></g>
<g transform="translate(152.375,428.375) scale(3.9483333333333)"><rect width="6" height="6"/></g>
<g transform="translate(175.375,428.375) scale(3.9483333333333)"><rect width="6" height="6"/></g>
<g transform="translate(198.375,428.375) scale(3.9483333333333)"><rect width="6" height="6"/></g>
<g transform="translate(221.375,428.375) scale(3.9483333333333)"><rect width="6" height="6"/></g>
<g transform="translate(244.375,428.375) scale(3.9483333333333)"><rect width="6" height="6"/></g>
<g transform="translate(290.375,428.375) scale(3.9483333333333)"><rect width="6" height="6"/></g>
<g transform="translate(336.375,428.375) scale(3.9483333333333)"><rect width="6" height="6"/></g>
<g transform="translate(359.375,428.375) scale(3.9483333333333)"><rect width="6" height="6"/></g>
<g transform="translate(428.375,428.375) scale(3.9483333333333)"><rect width="6" height="6"/></g>
<g transform="translate(451.375,428.375) scale(3.9483333333333)"><rect width="6" height="6"/></g>
<g transform="translate(474.375,428.375) scale(3.9483333333333)"><rect width="6" height="6"/></g>
<g transform="translate(520.375,428.375) scale(3.9483333333333)"><rect width="6" height="6"/></g>
<g transform="translate(543.375,428.375) scale(3.9483333333333)"><rect width="6" height="6"/></g>
<g transform="translate(589.375,428.375) scale(3.9483333333333)"><rect width="6" height="6"/></g>
<g transform="translate(658.375,428.375) scale(3.9483333333333)"><rect width="6" height="6"/></g>
<g transform="translate(681.375,428.375) scale(3.9483333333333)"><rect width="6" height="6"/></g>
<g transform="translate(750.375,428.375) scale(3.9483333333333)"><rect width="6" height="6"/></g>
<g transform="translate(796.375,428.375) scale(3.9483333333333)"><rect width="6" height="6"/></g>
<g transform="translate(865.375,428.375) scale(3.9483333333333)"><rect width="6" height="6"/></g>
<g transform="translate(911.375,428.375) scale(3.9483333333333)"><rect width="6" height="6"/></g>
<g transform="translate(934.375,428.375) scale(3.9483333333333)"><rect width="6" height="6"/></g>
<g transform="translate(106.375,451.375) scale(3.9483333333333)"><rect width="6" height="6"/></g>
<g transform="translate(175.375,451.375) scale(3.9483333333333)"><rect width="6" height="6"/></g>
<g transform="translate(221.375,451.375) scale(3.9483333333333)"><rect width="6" height="6"/></g>
<g transform="translate(313.375,451.375) scale(3.9483333333333)"><rect width="6" height="6"/></g>
<g transform="translate(336.375,451.375) scale(3.9483333333333)"><rect width="6" height="6"/></g>
<g transform="translate(359.375,451.375) scale(3.9483333333333)"><rect width="6" height="6"/></g>
<g transform="translate(405.375,451.375) scale(3.9483333333333)"><rect width="6" height="6"/></g>
<g transform="translate(474.375,451.375) scale(3.9483333333333)"><rect width="6" height="6"/></g>
<g transform="translate(543.375,451.375) scale(3.9483333333333)"><rect width="6" height="6"/></g>
<g transform="translate(566.375,451.375) scale(3.9483333333333)"><rect width="6" height="6"/></g>
<g transform="translate(589.375,451.375) scale(3.9483333333333)"><rect width="6" height="6"/></g>
<g transform="translate(612.375,451.375) scale(3.9483333333333)"><rect width="6" height="6"/></g>
<g transform="translate(658.375,451.375) scale(3.9483333333333)"><rect width="6" height="6"/></g>
<g transform="translate(750.375,451.375) scale(3.9483333333333)"><rect width="6" height="6"/></g>
<g transform="translate(842.375,451.375) scale(3.9483333333333)"><rect width="6" height="6"/></g>
<g transform="translate(934.375,451.375) scale(3.9483333333333)"><rect width="6" height="6"/></g>
<g transform="translate(106.375,474.375) scale(3.9483333333333)"><rect width="6" height="6"/></g>
<g transform="translate(129.375,474.375) scale(3.9483333333333)"><rect width="6" height="6"/></g>
<g transform="translate(152.375,474.375) scale(3.9483333333333)"><rect width="6" height="6"/></g>
<g transform="translate(175.375,474.375) scale(3.9483333333333)"><rect width="6" height="6"/></g>
<g transform="translate(244.375,474.375) scale(3.9483333333333)"><rect width="6" height="6"/></g>
<g transform="translate(290.375,474.375) scale(3.9483333333333)"><rect width="6" height="6"/></g>
<g transform="translate(313.375,474.375) scale(3.9483333333333)"><rect width="6" height="6"/></g>
<g transform="translate(359.375,474.375) scale(3.9483333333333)"><rect width="6" height="6"/></g>
<g transform="translate(382.375,474.375) scale(3.9483333333333)"><rect width="6" height="6"/></g>
<g transform="translate(474.375,474.375) scale(3.9483333333333)"><rect width="6" height="6"/></g>
<g transform="translate(543.375,474.375) scale(3.9483333333333)"><rect width="6" height="6"/></g>
<g transform="translate(589.375,474.375) scale(3.9483333333333)"><rect width="6" height="6"/></g>
<g transform="translate(658.375,474.375) scale(3.9483333333333)"><rect width="6" height="6"/></g>
<g transform="translate(681.375,474.375) scale(3.9483333333333)"><rect width="6" height="6"/></g>
<g transform="translate(704.375,474.375) scale(3.9483333333333)"><rect width="6" height="6"/></g>
<g transform="translate(727.375,474.375) scale(3.9483333333333)"><rect width="6" height="6"/></g>
<g transform="translate(750.375,474.375) scale(3.9483333333333)"><rect width="6" height="6"/></g>
<g transform="translate(773.375,474.375) scale(3.9483333333333)"><rect width="6" height="6"/></g>
<g transform="translate(796.375,474.375) scale(3.9483333333333)"><rect width="6" height="6"/></g>
<g transform="translate(842.375,474.375) scale(3.9483333333333)"><rect width="6" height="6"/></g>
<g transform="translate(888.375,474.375) scale(3.9483333333333)"><rect width="6" height="6"/></g>
<g transform="translate(911.375,474.375) scale(3.9483333333333)"><rect width="6" height="6"/></g>
<g transform="translate(934.375,474.375) scale(3.9483333333333)"><rect width="6" height="6"/></g>
<g transform="translate(106.375,497.375) scale(3.9483333333333)"><rect width="6" height="6"/></g>
<g transform="translate(267.375,497.375) scale(3.9483333333333)"><rect width="6" height="6"/></g>
<g transform="translate(290.375,497.375) scale(3.9483333333333)"><rect width="6" height="6"/></g>
<g transform="translate(428.375,497.375) scale(3.9483333333333)"><rect width="6" height="6"/></g>
<g transform="translate(451.375,497.375) scale(3.9483333333333)"><rect width="6" height="6"/></g>
<g transform="translate(497.375,497.375) scale(3.9483333333333)"><rect width="6" height="6"/></g>
<g transform="translate(543.375,497.375) scale(3.9483333333333)"><rect width="6" height="6"/></g>
<g transform="translate(635.375,497.375) scale(3.9483333333333)"><rect width="6" height="6"/></g>
<g transform="translate(658.375,497.375) scale(3.9483333333333)"><rect width="6" height="6"/></g>
<g transform="translate(819.375,497.375) scale(3.9483333333333)"><rect width="6" height="6"/></g>
<g transform="translate(865.375,497.375) scale(3.9483333333333)"><rect width="6" height="6"/></g>
<g transform="translate(911.375,497.375) scale(3.9483333333333)"><rect width="6" height="6"/></g>
<g transform="translate(106.375,520.375) scale(3.9483333333333)"><rect width="6" height="6"/></g>
<g transform="translate(152.375,520.375) scale(3.9483333333333)"><rect width="6" height="6"/></g>
<g transform="translate(198.375,520.375) scale(3.9483333333333)"><rect width="6" height="6"/></g>
<g transform="translate(244.375,520.375) scale(3.9483333333333)"><rect width="6" height="6"/></g>
<g transform="translate(267.375,520.375) scale(3.9483333333333)"><rect width="6" height="6"/></g>
<g transform="translate(336.375,520.375) scale(3.9483333333333)"><rect width="6" height="6"/></g>
<g transform="translate(359.375,520.375) scale(3.9483333333333)"><rect width="6" height="6"/></g>
<g transform="translate(382.375,520.375) scale(3.9483333333333)"><rect width="6" height="6"/></g>
<g transform="translate(405.375,520.375) scale(3.9483333333333)"><rect width="6" height="6"/></g>
<g transform="translate(474.375,520.375) scale(3.9483333333333)"><rect width="6" height="6"/></g>
<g transform="translate(497.375,520.375) scale(3.9483333333333)"><rect width="6" height="6"/></g>
<g transform="translate(520.375,520.375) scale(3.9483333333333)"><rect width="6" height="6"/></g>
<g transform="translate(543.375,520.375) scale(3.9483333333333)"><rect width="6" height="6"/></g>
<g transform="translate(566.375,520.375) scale(3.9483333333333)"><rect width="6" height="6"/></g>
<g transform="translate(612.375,520.375) scale(3.9483333333333)"><rect width="6" height="6"/></g>
<g transform="translate(635.375,520.375) scale(3.9483333333333)"><rect width="6" height="6"/></g>
<g transform="translate(681.375,520.375) scale(3.9483333333333)"><rect width="6" height="6"/></g>
<g transform="translate(704.375,520.375) scale(3.9483333333333)"><rect width="6" height="6"/></g>
<g transform="translate(727.375,520.375) scale(3.9483333333333)"><rect width="6" height="6"/></g>
<g transform="translate(796.375,520.375) scale(3.9483333333333)"><rect width="6" height="6"/></g>
<g transform="translate(934.375,520.375) scale(3.9483333333333)"><rect width="6" height="6"/></g>
<g transform="translate(106.375,543.375) scale(3.9483333333333)"><rect width="6" height="6"/></g>
<g transform="translate(175.375,543.375) scale(3.9483333333333)"><rect width="6" height="6"/></g>
<g transform="translate(221.375,543.375) scale(3.9483333333333)"><rect width="6" height="6"/></g>
<g transform="translate(267.375,543.375) scale(3.9483333333333)"><rect width="6" height="6"/></g>
<g transform="translate(313.375,543.375) scale(3.9483333333333)"><rect width="6" height="6"/></g>
<g transform="translate(336.375,543.375) scale(3.9483333333333)"><rect width="6" height="6"/></g>
<g transform="translate(382.375,543.375) scale(3.9483333333333)"><rect width="6" height="6"/></g>
<g transform="translate(474.375,543.375) scale(3.9483333333333)"><rect width="6" height="6"/></g>
<g transform="translate(543.375,543.375) scale(3.9483333333333)"><rect width="6" height="6"/></g>
<g transform="translate(612.375,543.375) scale(3.9483333333333)"><rect width="6" height="6"/></g>
<g transform="translate(704.375,543.375) scale(3.9483333333333)"><rect width="6" height="6"/></g>
<g transform="translate(727.375,543.375) scale(3.9483333333333)"><rect width="6" height="6"/></g>
<g transform="translate(750.375,543.375) scale(3.9483333333333)"><rect width="6" height="6"/></g>
<g transform="translate(773.375,543.375) scale(3.9483333333333)"><rect width="6" height="6"/></g>
<g transform="translate(865.375,543.375) scale(3.9483333333333)"><rect width="6" height="6"/></g>
<g transform="translate(911.375,543.375) scale(3.9483333333333)"><rect width="6" height="6"/></g>
<g transform="translate(106.375,566.375) scale(3.9483333333333)"><rect width="6" height="6"/></g>
<g transform="translate(152.375,566.375) scale(3.9483333333333)"><rect width="6" height="6"/></g>
<g transform="translate(175.375,566.375) scale(3.9483333333333)"><rect width="6" height="6"/></g>
<g transform="translate(198.375,566.375) scale(3.9483333333333)"><rect width="6" height="6"/></g>
<g transform="translate(244.375,566.375) scale(3.9483333333333)"><rect width="6" height="6"/></g>
<g transform="translate(267.375,566.375) scale(3.9483333333333)"><rect width="6" height="6"/></g>
<g transform="translate(359.375,566.375) scale(3.9483333333333)"><rect width="6" height="6"/></g>
<g transform="translate(382.375,566.375) scale(3.9483333333333)"><rect width="6" height="6"/></g>
<g transform="translate(405.375,566.375) scale(3.9483333333333)"><rect width="6" height="6"/></g>
<g transform="translate(451.375,566.375) scale(3.9483333333333)"><rect width="6" height="6"/></g>
<g transform="translate(497.375,566.375) scale(3.9483333333333)"><rect width="6" height="6"/></g>
<g transform="translate(520.375,566.375) scale(3.9483333333333)"><rect width="6" height="6"/></g>
<g transform="translate(635.375,566.375) scale(3.9483333333333)"><rect width="6" height="6"/></g>
<g transform="translate(727.375,566.375) scale(3.9483333333333)"><rect width="6" height="6"/></g>
<g transform="translate(796.375,566.375) scale(3.9483333333333)"><rect width="6" height="6"/></g>
<g transform="translate(819.375,566.375) scale(3.9483333333333)"><rect width="6" height="6"/></g>
<g transform="translate(842.375,566.375) scale(3.9483333333333)"><rect width="6" height="6"/></g>
<g transform="translate(888.375,566.375) scale(3.9483333333333)"><rect width="6" height="6"/></g>
<g transform="translate(911.375,566.375) scale(3.9483333333333)"><rect width="6" height="6"/></g>
<g transform="translate(934.375,566.375) scale(3.9483333333333)"><rect width="6" height="6"/></g>
<g transform="translate(129.375,589.375) scale(3.9483333333333)"><rect width="6" height="6"/></g>
<g transform="translate(152.375,589.375) scale(3.9483333333333)"><rect width="6" height="6"/></g>
<g transform="translate(221.375,589.375) scale(3.9483333333333)"><rect width="6" height="6"/></g>
<g transform="translate(267.375,589.375) scale(3.9483333333333)"><rect width="6" height="6"/></g>
<g transform="translate(290.375,589.375) scale(3.9483333333333)"><rect width="6" height="6"/></g>
<g transform="translate(313.375,589.375) scale(3.9483333333333)"><rect width="6" height="6"/></g>
<g transform="translate(359.375,589.375) scale(3.9483333333333)"><rect width="6" height="6"/></g>
<g transform="translate(382.375,589.375) scale(3.9483333333333)"><rect width="6" height="6"/></g>
<g transform="translate(405.375,589.375) scale(3.9483333333333)"><rect width="6" height="6"/></g>
<g transform="translate(428.375,589.375) scale(3.9483333333333)"><rect width="6" height="6"/></g>
<g transform="translate(474.375,589.375) scale(3.9483333333333)"><rect width="6" height="6"/></g>
<g transform="translate(497.375,589.375) scale(3.9483333333333)"><rect width="6" height="6"/></g>
<g transform="translate(566.375,589.375) scale(3.9483333333333)"><rect width="6" height="6"/></g>
<g transform="translate(589.375,589.375) scale(3.9483333333333)"><rect width="6" height="6"/></g>
<g transform="translate(635.375,589.375) scale(3.9483333333333)"><rect width="6" height="6"/></g>
<g transform="translate(658.375,589.375) scale(3.9483333333333)"><rect width="6" height="6"/></g>
<g transform="translate(704.375,589.375) scale(3.9483333333333)"><rect width="6" height="6"/></g>
<g transform="translate(750.375,589.375) scale(3.9483333333333)"><rect width="6" height="6"/></g>
<g transform="translate(796.375,589.375) scale(3.9483333333333)"><rect width="6" height="6"/></g>
<g transform="translate(934.375,589.375) scale(3.9483333333333)"><rect width="6" height="6"/></g>
<g transform="translate(106.375,612.375) scale(3.9483333333333)"><rect width="6" height="6"/></g>
<g transform="translate(129.375,612.375) scale(3.9483333333333)"><rect width="6" height="6"/></g>
<g transform="translate(152.375,612.375) scale(3.9483333333333)"><rect width="6" height="6"/></g>
<g transform="translate(175.375,612.375) scale(3.9483333333333)"><rect width="6" height="6"/></g>
<g transform="translate(198.375,612.375) scale(3.9483333333333)"><rect width="6" height="6"/></g>
<g transform="translate(244.375,612.375) scale(3.9483333333333)"><rect width="6" height="6"/></g>
<g transform="translate(267.375,612.375) scale(3.9483333333333)"><rect width="6" height="6"/></g>
<g transform="translate(428.375,612.375) scale(3.9483333333333)"><rect width="6" height="6"/></g>
<g transform="translate(451.375,612.375) scale(3.9483333333333)"><rect width="6" height="6"/></g>
<g transform="translate(474.375,612.375) scale(3.9483333333333)"><rect width="6" height="6"/></g>
<g transform="translate(497.375,612.375) scale(3.9483333333333)"><rect width="6" height="6"/></g>
<g transform="translate(520.375,612.375) scale(3.9483333333333)"><rect width="6" height="6"/></g>
<g transform="translate(543.375,612.375) scale(3.9483333333333)"><rect width="6" height="6"/></g>
<g transform="translate(681.375,612.375) scale(3.9483333333333)"><rect width="6" height="6"/></g>
<g transform="translate(704.375,612.375) scale(3.9483333333333)"><rect width="6" height="6"/></g>
<g transform="translate(727.375,612.375) scale(3.9483333333333)"><rect width="6" height="6"/></g>
<g transform="translate(773.375,612.375) scale(3.9483333333333)"><rect width="6" height="6"/></g>
<g transform="translate(796.375,612.375) scale(3.9483333333333)"><rect width="6" height="6"/></g>
<g transform="translate(842.375,612.375) scale(3.9483333333333)"><rect width="6" height="6"/></g>
<g transform="translate(911.375,612.375) scale(3.9483333333333)"><rect width="6" height="6"/></g>
<g transform="translate(106.375,635.375) scale(3.9483333333333)"><rect width="6" height="6"/></g>
<g transform="translate(129.375,635.375) scale(3.9483333333333)"><rect width="6" height="6"/></g>
<g transform="translate(313.375,635.375) scale(3.9483333333333)"><rect width="6" height="6"/></g>
<g transform="translate(405.375,635.375) scale(3.9483333333333)"><rect width="6" height="6"/></g>
<g transform="translate(543.375,635.375) scale(3.9483333333333)"><rect width="6" height="6"/></g>
<g transform="translate(566.375,635.375) scale(3.9483333333333)"><rect width="6" height="6"/></g>
<g transform="translate(589.375,635.375) scale(3.9483333333333)"><rect width="6" height="6"/></g>
<g transform="translate(635.375,635.375) scale(3.9483333333333)"><rect width="6" height="6"/></g>
<g transform="translate(658.375,635.375) scale(3.9483333333333)"><rect width="6" height="6"/></g>
<g transform="translate(750.375,635.375) scale(3.9483333333333)"><rect width="6" height="6"/></g>
<g transform="translate(819.375,635.375) scale(3.9483333333333)"><rect width="6" height="6"/></g>
<g transform="translate(865.375,635.375) scale(3.9483333333333)"><rect width="6" height="6"/></g>
<g transform="translate(934.375,635.375) scale(3.9483333333333)"><rect width="6" height="6"/></g>
<g transform="translate(175.375,658.375) scale(3.9483333333333)"><rect width="6" height="6"/></g>
<g transform="translate(244.375,658.375) scale(3.9483333333333)"><rect width="6" height="6"/></g>
<g transform="translate(405.375,658.375) scale(3.9483333333333)"><rect width="6" height="6"/></g>
<g transform="translate(451.375,658.375) scale(3.9483333333333)"><rect width="6" height="6"/></g>
<g transform="translate(658.375,658.375) scale(3.9483333333333)"><rect width="6" height="6"/></g>
<g transform="translate(681.375,658.375) scale(3.9483333333333)"><rect width="6" height="6"/></g>
<g transform="translate(704.375,658.375) scale(3.9483333333333)"><rect width="6" height="6"/></g>
<g transform="translate(727.375,658.375) scale(3.9483333333333)"><rect width="6" height="6"/></g>
<g transform="translate(865.375,658.375) scale(3.9483333333333)"><rect width="6" height="6"/></g>
<g transform="translate(888.375,658.375) scale(3.9483333333333)"><rect width="6" height="6"/></g>
<g transform="translate(911.375,658.375) scale(3.9483333333333)"><rect width="6" height="6"/></g>
<g transform="translate(106.375,681.375) scale(3.9483333333333)"><rect width="6" height="6"/></g>
<g transform="translate(152.375,681.375) scale(3.9483333333333)"><rect width="6" height="6"/></g>
<g transform="translate(221.375,681.375) scale(3.9483333333333)"><rect width="6" height="6"/></g>
<g transform="translate(267.375,681.375) scale(3.9483333333333)"><rect width="6" height="6"/></g>
<g transform="translate(290.375,681.375) scale(3.9483333333333)"><rect width="6" height="6"/></g>
<g transform="translate(336.375,681.375) scale(3.9483333333333)"><rect width="6" height="6"/></g>
<g transform="translate(359.375,681.375) scale(3.9483333333333)"><rect width="6" height="6"/></g>
<g transform="translate(451.375,681.375) scale(3.9483333333333)"><rect width="6" height="6"/></g>
<g transform="translate(474.375,681.375) scale(3.9483333333333)"><rect width="6" height="6"/></g>
<g transform="translate(497.375,681.375) scale(3.9483333333333)"><rect width="6" height="6"/></g>
<g transform="translate(566.375,681.375) scale(3.9483333333333)"><rect width="6" height="6"/></g>
<g transform="translate(750.375,681.375) scale(3.9483333333333)"><rect width="6" height="6"/></g>
<g transform="translate(911.375,681.375) scale(3.9483333333333)"><rect width="6" height="6"/></g>
<g transform="translate(106.375,704.375) scale(3.9483333333333)"><rect width="6" height="6"/></g>
<g transform="translate(175.375,704.375) scale(3.9483333333333)"><rect width="6" height="6"/></g>
<g transform="translate(221.375,704.375) scale(3.9483333333333)"><rect width="6" height="6"/></g>
<g transform="translate(244.375,704.375) scale(3.9483333333333)"><rect width="6" height="6"/></g>
<g transform="translate(267.375,704.375) scale(3.9483333333333)"><rect width="6" height="6"/></g>
<g transform="translate(290.375,704.375) scale(3.9483333333333)"><rect width="6" height="6"/></g>
<g transform="translate(405.375,704.375) scale(3.9483333333333)"><rect width="6" height="6"/></g>
<g transform="translate(589.375,704.375) scale(3.9483333333333)"><rect width="6" height="6"/></g>
<g transform="translate(635.375,704.375) scale(3.9483333333333)"><rect width="6" height="6"/></g>
<g transform="translate(658.375,704.375) scale(3.9483333333333)"><rect width="6" height="6"/></g>
<g transform="translate(681.375,704.375) scale(3.9483333333333)"><rect width="6" height="6"/></g>
<g transform="translate(727.375,704.375) scale(3.9483333333333)"><rect width="6" height="6"/></g>
<g transform="translate(796.375,704.375) scale(3.9483333333333)"><rect width="6" height="6"/></g>
<g transform="translate(842.375,704.375) scale(3.9483333333333)"><rect width="6" height="6"/></g>
<g transform="translate(865.375,704.375) scale(3.9483333333333)"><rect width="6" height="6"/></g>
<g transform="translate(888.375,704.375) scale(3.9483333333333)"><rect width="6" height="6"/></g>
<g transform="translate(934.375,704.375) scale(3.9483333333333)"><rect width="6" height="6"/></g>
<g transform="translate(106.375,727.375) scale(3.9483333333333)"><rect width="6" height="6"/></g>
<g transform="translate(152.375,727.375) scale(3.9483333333333)"><rect width="6" height="6"/></g>
<g transform="translate(175.375,727.375) scale(3.9483333333333)"><rect width="6" height="6"/></g>
<g transform="translate(221.375,727.375) scale(3.9483333333333)"><rect width="6" height="6"/></g>
<g transform="translate(290.375,727.375) scale(3.9483333333333)"><rect width="6" height="6"/></g>
<g transform="translate(336.375,727.375) scale(3.9483333333333)"><rect width="6" height="6"/></g>
<g transform="translate(405.375,727.375) scale(3.9483333333333)"><rect width="6" height="6"/></g>
<g transform="translate(428.375,727.375) scale(3.9483333333333)"><rect width="6" height="6"/></g>
<g transform="translate(451.375,727.375) scale(3.9483333333333)"><rect width="6" height="6"/></g>
<g transform="translate(497.375,727.375) scale(3.9483333333333)"><rect width="6" height="6"/></g>
<g transform="translate(520.375,727.375) scale(3.9483333333333)"><rect width="6" height="6"/></g>
<g transform="translate(566.375,727.375) scale(3.9483333333333)"><rect width="6" height="6"/></g>
<g transform="translate(635.375,727.375) scale(3.9483333333333)"><rect width="6" height="6"/></g>
<g transform="translate(704.375,727.375) scale(3.9483333333333)"><rect width="6" height="6"/></g>
<g transform="translate(750.375,727.375) scale(3.9483333333333)"><rect width="6" height="6"/></g>
<g transform="translate(819.375,727.375) scale(3.9483333333333)"><rect width="6" height="6"/></g>
<g transform="translate(865.375,727.375) scale(3.9483333333333)"><rect width="6" height="6"/></g>
<g transform="translate(934.375,727.375) scale(3.9483333333333)"><rect width="6" height="6"/></g>
<g transform="translate(106.375,750.375) scale(3.9483333333333)"><rect width="6" height="6"/></g>
<g transform="translate(152.375,750.375) scale(3.9483333333333)"><rect width="6" height="6"/></g>
<g transform="translate(175.375,750.375) scale(3.9483333333333)"><rect width="6" height="6"/></g>
<g transform="translate(198.375,750.375) scale(3.9483333333333)"><rect width="6" height="6"/></g>
<g transform="translate(244.375,750.375) scale(3.9483333333333)"><rect width="6" height="6"/></g>
<g transform="translate(313.375,750.375) scale(3.9483333333333)"><rect width="6" height="6"/></g>
<g transform="translate(336.375,750.375) scale(3.9483333333333)"><rect width="6" height="6"/></g>
<g transform="translate(359.375,750.375) scale(3.9483333333333)"><rect width="6" height="6"/></g>
<g transform="translate(382.375,750.375) scale(3.9483333333333)"><rect width="6" height="6"/></g>
<g transform="translate(405.375,750.375) scale(3.9483333333333)"><rect width="6" height="6"/></g>
<g transform="translate(428.375,750.375) scale(3.9483333333333)"><rect width="6" height="6"/></g>
<g transform="translate(451.375,750.375) scale(3.9483333333333)"><rect width="6" height="6"/></g>
<g transform="translate(520.375,750.375) scale(3.9483333333333)"><rect width="6" height="6"/></g>
<g transform="translate(543.375,750.375) scale(3.9483333333333)"><rect width="6" height="6"/></g>
<g transform="translate(566.375,750.375) scale(3.9483333333333)"><rect width="6" height="6"/></g>
<g transform="translate(589.375,750.375) scale(3.9483333333333)"><rect width="6" height="6"/></g>
<g transform="translate(635.375,750.375) scale(3.9483333333333)"><rect width="6" height="6"/></g>
<g transform="translate(658.375,750.375) scale(3.9483333333333)"><rect width="6" height="6"/></g>
<g transform="translate(681.375,750.375) scale(3.9483333333333)"><rect width="6" height="6"/></g>
<g transform="translate(727.375,750.375) scale(3.9483333333333)"><rect width="6" height="6"/></g>
<g transform="translate(750.375,750.375) scale(3.9483333333333)"><rect width="6" height="6"/></g>
<g transform="translate(773.375,750.375) scale(3.9483333333333)"><rect width="6" height="6"/></g>
<g transform="translate(796.375,750.375) scale(3.9483333333333)"><rect width="6" height="6"/></g>
<g transform="translate(819.375,750.375) scale(3.9483333333333)"><rect width="6" height="6"/></g>
<g transform="translate(842.375,750.375) scale(3.9483333333333)"><rect width="6" height="6"/></g>
<g transform="translate(865.375,750.375) scale(3.9483333333333)"><rect width="6" height="6"/></g>
<g transform="translate(911.375,750.375) scale(3.9483333333333)"><rect width="6" height="6"/></g>
<g transform="translate(934.375,750.375) scale(3.9483333333333)"><rect width="6" height="6"/></g>
<g transform="translate(290.375,773.375) scale(3.9483333333333)"><rect width="6" height="6"/></g>
<g transform="translate(313.375,773.375) scale(3.9483333333333)"><rect width="6" height="6"/></g>
<g transform="translate(451.375,773.375) scale(3.9483333333333)"><rect width="6" height="6"/></g>
<g transform="translate(497.375,773.375) scale(3.9483333333333)"><rect width="6" height="6"/></g>
<g transform="translate(520.375,773.375) scale(3.9483333333333)"><rect width="6" height="6"/></g>
<g transform="translate(566.375,773.375) scale(3.9483333333333)"><rect width="6" height="6"/></g>
<g transform="translate(589.375,773.375) scale(3.9483333333333)"><rect width="6" height="6"/></g>
<g transform="translate(704.375,773.375) scale(3.9483333333333)"><rect width="6" height="6"/></g>
<g transform="translate(727.375,773.375) scale(3.9483333333333)"><rect width="6" height="6"/></g>
<g transform="translate(750.375,773.375) scale(3.9483333333333)"><rect width="6" height="6"/></g>
<g transform="translate(842.375,773.375) scale(3.9483333333333)"><rect width="6" height="6"/></g>
<g transform="translate(865.375,773.375) scale(3.9483333333333)"><rect width="6" height="6"/></g>
<g transform="translate(888.375,773.375) scale(3.9483333333333)"><rect width="6" height="6"/></g>
<g transform="translate(911.375,773.375) scale(3.9483333333333)"><rect width="6" height="6"/></g>
<g transform="translate(313.375,796.375) scale(3.9483333333333)"><rect width="6" height="6"/></g>
<g transform="translate(382.375,796.375) scale(3.9483333333333)"><rect width="6" height="6"/></g>
<g transform="translate(405.375,796.375) scale(3.9483333333333)"><rect width="6" height="6"/></g>
<g transform="translate(428.375,796.375) scale(3.9483333333333)"><rect width="6" height="6"/></g>
<g transform="translate(497.375,796.375) scale(3.9483333333333)"><rect width="6" height="6"/></g>
<g transform="translate(520.375,796.375) scale(3.9483333333333)"><rect width="6" height="6"/></g>
<g transform="translate(727.375,796.375) scale(3.9483333333333)"><rect width="6" height="6"/></g>
<g transform="translate(750.375,796.375) scale(3.9483333333333)"><rect width="6" height="6"/></g>
<g transform="translate(796.375,796.375) scale(3.9483333333333)"><rect width="6" height="6"/></g>
<g transform="translate(842.375,796.375) scale(3.9483333333333)"><rect width="6" height="6"/></g>
<g transform="translate(865.375,796.375) scale(3.9483333333333)"><rect width="6" height="6"/></g>
<g transform="translate(934.375,796.375) scale(3.9483333333333)"><rect width="6" height="6"/></g>
<g transform="translate(313.375,819.375) scale(3.9483333333333)"><rect width="6" height="6"/></g>
<g transform="translate(382.375,819.375) scale(3.9483333333333)"><rect width="6" height="6"/></g>
<g transform="translate(428.375,819.375) scale(3.9483333333333)"><rect width="6" height="6"/></g>
<g transform="translate(497.375,819.375) scale(3.9483333333333)"><rect width="6" height="6"/></g>
<g transform="translate(520.375,819.375) scale(3.9483333333333)"><rect width="6" height="6"/></g>
<g transform="translate(543.375,819.375) scale(3.9483333333333)"><rect width="6" height="6"/></g>
<g transform="translate(589.375,819.375) scale(3.9483333333333)"><rect width="6" height="6"/></g>
<g transform="translate(658.375,819.375) scale(3.9483333333333)"><rect width="6" height="6"/></g>
<g transform="translate(704.375,819.375) scale(3.9483333333333)"><rect width="6" height="6"/></g>
<g transform="translate(727.375,819.375) scale(3.9483333333333)"><rect width="6" height="6"/></g>
<g transform="translate(750.375,819.375) scale(3.9483333333333)"><rect width="6" height="6"/></g>
<g transform="translate(842.375,819.375) scale(3.9483333333333)"><rect width="6" height="6"/></g>
<g transform="translate(290.375,842.375) scale(3.9483333333333)"><rect width="6" height="6"/></g>
<g transform="translate(313.375,842.375) scale(3.9483333333333)"><rect width="6" height="6"/></g>
<g transform="translate(336.375,842.375) scale(3.9483333333333)"><rect width="6" height="6"/></g>
<g transform="translate(382.375,842.375) scale(3.9483333333333)"><rect width="6" height="6"/></g>
<g transform="translate(474.375,842.375) scale(3.9483333333333)"><rect width="6" height="6"/></g>
<g transform="translate(589.375,842.375) scale(3.9483333333333)"><rect width="6" height="6"/></g>
<g transform="translate(612.375,842.375) scale(3.9483333333333)"><rect width="6" height="6"/></g>
<g transform="translate(658.375,842.375) scale(3.9483333333333)"><rect width="6" height="6"/></g>
<g transform="translate(681.375,842.375) scale(3.9483333333333)"><rect width="6" height="6"/></g>
<g transform="translate(704.375,842.375) scale(3.9483333333333)"><rect width="6" height="6"/></g>
<g transform="translate(727.375,842.375) scale(3.9483333333333)"><rect width="6" height="6"/></g>
<g transform="translate(750.375,842.375) scale(3.9483333333333)"><rect width="6" height="6"/></g>
<g transform="translate(773.375,842.375) scale(3.9483333333333)"><rect width="6" height="6"/></g>
<g transform="translate(796.375,842.375) scale(3.9483333333333)"><rect width="6" height="6"/></g>
<g transform="translate(819.375,842.375) scale(3.9483333333333)"><rect width="6" height="6"/></g>
<g transform="translate(842.375,842.375) scale(3.9483333333333)"><rect width="6" height="6"/></g>
<g transform="translate(865.375,842.375) scale(3.9483333333333)"><rect width="6" height="6"/></g>
<g transform="translate(911.375,842.375) scale(3.9483333333333)"><rect width="6" height="6"/></g>
<g transform="translate(934.375,842.375) scale(3.9483333333333)"><rect width="6" height="6"/></g>
<g transform="translate(290.375,865.375) scale(3.9483333333333)"><rect width="6" height="6"/></g>
<g transform="translate(336.375,865.375) scale(3.9483333333333)"><rect width="6" height="6"/></g>
<g transform="translate(382.375,865.375) scale(3.9483333333333)"><rect width="6" height="6"/></g>
<g transform="translate(405.375,865.375) scale(3.9483333333333)"><rect width="6" height="6"/></g>
<g transform="translate(451.375,865.375) scale(3.9483333333333)"><rect width="6" height="6"/></g>
<g transform="translate(520.375,865.375) scale(3.9483333333333)"><rect width="6" height="6"/></g>
<g transform="translate(658.375,865.375) scale(3.9483333333333)"><rect width="6" height="6"/></g>
<g transform="translate(681.375,865.375) scale(3.9483333333333)"><rect width="6" height="6"/></g>
<g transform="translate(727.375,865.375) scale(3.9483333333333)"><rect width="6" height="6"/></g>
<g transform="translate(796.375,865.375) scale(3.9483333333333)"><rect width="6" height="6"/></g>
<g transform="translate(865.375,865.375) scale(3.9483333333333)"><rect width="6" height="6"/></g>
<g transform="translate(888.375,865.375) scale(3.9483333333333)"><rect width="6" height="6"/></g>
<g transform="translate(911.375,865.375) scale(3.9483333333333)"><rect width="6" height="6"/></g>
<g transform="translate(934.375,865.375) scale(3.9483333333333)"><rect width="6" height="6"/></g>
<g transform="translate(290.375,888.375) scale(3.9483333333333)"><rect width="6" height="6"/></g>
<g transform="translate(336.375,888.375) scale(3.9483333333333)"><rect width="6" height="6"/></g>
<g transform="translate(428.375,888.375) scale(3.9483333333333)"><rect width="6" height="6"/></g>
<g transform="translate(451.375,888.375) scale(3.9483333333333)"><rect width="6" height="6"/></g>
<g transform="translate(520.375,888.375) scale(3.9483333333333)"><rect width="6" height="6"/></g>
<g transform="translate(543.375,888.375) scale(3.9483333333333)"><rect width="6" height="6"/></g>
<g transform="translate(589.375,888.375) scale(3.9483333333333)"><rect width="6" height="6"/></g>
<g transform="translate(658.375,888.375) scale(3.9483333333333)"><rect width="6" height="6"/></g>
<g transform="translate(681.375,888.375) scale(3.9483333333333)"><rect width="6" height="6"/></g>
<g transform="translate(704.375,888.375) scale(3.9483333333333)"><rect width="6" height="6"/></g>
<g transform="translate(727.375,888.375) scale(3.9483333333333)"><rect width="6" height="6"/></g>
<g transform="translate(773.375,888.375) scale(3.9483333333333)"><rect width="6" height="6"/></g>
<g transform="translate(819.375,888.375) scale(3.9483333333333)"><rect width="6" height="6"/></g>
<g transform="translate(865.375,888.375) scale(3.9483333333333)"><rect width="6" height="6"/></g>
<g transform="translate(934.375,888.375) scale(3.9483333333333)"><rect width="6" height="6"/></g>
<g transform="translate(382.375,911.375) scale(3.9483333333333)"><rect width="6" height="6"/></g>
<g transform="translate(405.375,911.375) scale(3.9483333333333)"><rect width="6" height="6"/></g>
<g transform="translate(428.375,911.375) scale(3.9483333333333)"><rect width="6" height="6"/></g>
<g transform="translate(474.375,911.375) scale(3.9483333333333)"><rect width="6" height="6"/></g>
<g transform="translate(497.375,911.375) scale(3.9483333333333)"><rect width="6" height="6"/></g>
<g transform="translate(543.375,911.375) scale(3.9483333333333)"><rect width="6" height="6"/></g>
<g transform="translate(566.375,911.375) scale(3.9483333333333)"><rect width="6" height="6"/></g>
<g transform="translate(612.375,911.375) scale(3.9483333333333)"><rect width="6" height="6"/></g>
<g transform="translate(658.375,911.375) scale(3.9483333333333)"><rect width="6" height="6"/></g>
<g transform="translate(681.375,911.375) scale(3.9483333333333)"><rect width="6" height="6"/></g>
<g transform="translate(750.375,911.375) scale(3.9483333333333)"><rect width="6" height="6"/></g>
<g transform="translate(773.375,911.375) scale(3.9483333333333)"><rect width="6" height="6"/></g>
<g transform="translate(796.375,911.375) scale(3.9483333333333)"><rect width="6" height="6"/></g>
<g transform="translate(865.375,911.375) scale(3.9483333333333)"><rect width="6" height="6"/></g>
<g transform="translate(934.375,911.375) scale(3.9483333333333)"><rect width="6" height="6"/></g>
<g transform="translate(313.375,934.375) scale(3.9483333333333)"><rect width="6" height="6"/></g>
<g transform="translate(336.375,934.375) scale(3.9483333333333)"><rect width="6" height="6"/></g>
<g transform="translate(405.375,934.375) scale(3.9483333333333)"><rect width="6" height="6"/></g>
<g transform="translate(428.375,934.375) scale(3.9483333333333)"><rect width="6" height="6"/></g>
<g transform="translate(451.375,934.375) scale(3.9483333333333)"><rect width="6" height="6"/></g>
<g transform="translate(543.375,934.375) scale(3.9483333333333)"><rect width="6" height="6"/></g>
<g transform="translate(589.375,934.375) scale(3.9483333333333)"><rect width="6" height="6"/></g>
<g transform="translate(612.375,934.375) scale(3.9483333333333)"><rect width="6" height="6"/></g>
<g transform="translate(658.375,934.375) scale(3.9483333333333)"><rect width="6" height="6"/></g>
<g transform="translate(727.375,934.375) scale(3.9483333333333)"><rect width="6" height="6"/></g>
<g transform="translate(888.375,934.375) scale(3.9483333333333)"><rect width="6" height="6"/></g>
<g transform="translate(911.375,934.375) scale(3.9483333333333)"><rect width="6" height="6"/></g>
<g transform="translate(934.375,934.375) scale(3.9483333333333)"><rect width="6" height="6"/></g>
</g></g></mask></defs>
<rect width="984.85520833333" height="984.85520833333" fill="#ffffff" x="44.322916666667" y="44.322916666667" transform="translate(0,177.29166666667)" />
<g fill="#ffffff" transform="scale(44.322916666667)"><path d="M1.3,28L22.6,28c0.7,0,1.3-0.6,1.3-1.3L24,1.4c0-0.7-0.6-1.3-1.3-1.3L1.4,0C0.7,0,0.1,0.6,0,1.3L0,26.6 C-0.1,27.4,0.5,28,1.3,28z M1,6c0-0.6,0.5-1,1-1L22,5c0.6,0,1,0.5,1,1L23,26c0,0.6-0.5,1-1,1L2,27c-0.6,0-1-0.5-1-1L1,6z"/></g>
<rect x="0" y="0" width="1063.75" height="1241.0416666667" mask="url(#qrmask)" fill="#000000" />
<g transform="translate(0,177.29166666667)"><g transform="translate(106.375,106.375)"  fill="#000000"><g transform="scale(11.5)"><path d="M0,0v14h14V0H0z M12,12H2V2h10V12z"/></g></g>
<g transform="translate(152.375,152.375)"  fill="#000000"><g transform="scale(11.5)"><rect width="6" height="6"/></g></g>
<g transform="translate(796.375,106.375)"  fill="#000000"><g transform="scale(11.5)"><path d="M0,0v14h14V0H0z M12,12H2V2h10V12z"/></g></g>
<g transform="translate(842.375,152.375)"  fill="#000000"><g transform="scale(11.5)"><rect width="6" height="6"/></g></g>
<g transform="translate(106.375,796.375)"  fill="#000000"><g transform="scale(11.5)"><path d="M0,0v14h14V0H0z M12,12H2V2h10V12z"/></g></g>
<g transform="translate(152.375,842.375)"  fill="#000000"><g transform="scale(11.5)"><rect width="6" height="6"/></g></g></g>
<text fill="#000000" font-family="&#39;Courier New&#39;, Courier, monospace" font-size="75.758092948718px" text-anchor="middle" x="525.625" y="139.94501972387">BNB &amp; ETH</text></svg>